solid LK1-002.01c
   facet normal 0.000000e+000 -1.000000e+000 0.000000e+000
      outer loop
         vertex 0.000000e+000 0.000000e+000 4.000000e+000
         vertex 0.000000e+000 0.000000e+000 0.000000e+000
         vertex 2.000000e+001 0.000000e+000 4.000000e+000
      endloop
   endfacet
   facet normal 0.000000e+000 -1.000000e+000 0.000000e+000
      outer loop
         vertex 2.000000e+001 0.000000e+000 4.000000e+000
         vertex 0.000000e+000 0.000000e+000 0.000000e+000
         vertex 2.000000e+001 0.000000e+000 0.000000e+000
      endloop
   endfacet
   facet normal 1.000000e+000 0.000000e+000 0.000000e+000
      outer loop
         vertex 5.000000e+001 5.000000e+001 0.000000e+000
         vertex 5.000000e+001 5.000000e+001 4.000000e+000
         vertex 5.000000e+001 3.000000e+001 0.000000e+000
      endloop
   endfacet
   facet normal 1.000000e+000 0.000000e+000 0.000000e+000
      outer loop
         vertex 5.000000e+001 3.000000e+001 0.000000e+000
         vertex 5.000000e+001 5.000000e+001 4.000000e+000
         vertex 5.000000e+001 3.000000e+001 4.000000e+000
      endloop
   endfacet
   facet normal 0.000000e+000 0.000000e+000 1.000000e+000
      outer loop
         vertex 0.000000e+000 4.600000e+001 4.000000e+000
         vertex 0.000000e+000 0.000000e+000 4.000000e+000
         vertex 4.000000e+000 5.000000e+001 4.000000e+000
      endloop
   endfacet
   facet normal 0.000000e+000 0.000000e+000 1.000000e+000
      outer loop
         vertex 4.000000e+000 5.000000e+001 4.000000e+000
         vertex 0.000000e+000 0.000000e+000 4.000000e+000
         vertex 2.000000e+001 0.000000e+000 4.000000e+000
      endloop
   endfacet
   facet normal 0.000000e+000 0.000000e+000 1.000000e+000
      outer loop
         vertex 4.000000e+000 5.000000e+001 4.000000e+000
         vertex 2.000000e+001 0.000000e+000 4.000000e+000
         vertex 5.000000e+001 5.000000e+001 4.000000e+000
      endloop
   endfacet
   facet normal 0.000000e+000 0.000000e+000 1.000000e+000
      outer loop
         vertex 5.000000e+001 5.000000e+001 4.000000e+000
         vertex 2.000000e+001 0.000000e+000 4.000000e+000
         vertex 5.000000e+001 3.000000e+001 4.000000e+000
      endloop
   endfacet
   facet normal 0.000000e+000 0.000000e+000 -1.000000e+000
      outer loop
         vertex 5.000000e+001 5.000000e+001 0.000000e+000
         vertex 5.000000e+001 3.000000e+001 0.000000e+000
         vertex 4.000000e+000 5.000000e+001 0.000000e+000
      endloop
   endfacet
   facet normal 0.000000e+000 0.000000e+000 -1.000000e+000
      outer loop
         vertex 4.000000e+000 5.000000e+001 0.000000e+000
         vertex 5.000000e+001 3.000000e+001 0.000000e+000
         vertex 2.000000e+001 0.000000e+000 0.000000e+000
      endloop
   endfacet
   facet normal 0.000000e+000 0.000000e+000 -1.000000e+000
      outer loop
         vertex 4.000000e+000 5.000000e+001 0.000000e+000
         vertex 2.000000e+001 0.000000e+000 0.000000e+000
         vertex 0.000000e+000 4.600000e+001 0.000000e+000
      endloop
   endfacet
   facet normal 0.000000e+000 0.000000e+000 -1.000000e+000
      outer loop
         vertex 0.000000e+000 4.600000e+001 0.000000e+000
         vertex 2.000000e+001 0.000000e+000 0.000000e+000
         vertex 0.000000e+000 0.000000e+000 0.000000e+000
      endloop
   endfacet
   facet normal -1.000000e+000 0.000000e+000 0.000000e+000
      outer loop
         vertex 0.000000e+000 4.600000e+001 0.000000e+000
         vertex 0.000000e+000 0.000000e+000 0.000000e+000
         vertex 0.000000e+000 4.600000e+001 4.000000e+000
      endloop
   endfacet
   facet normal -1.000000e+000 0.000000e+000 0.000000e+000
      outer loop
         vertex 0.000000e+000 4.600000e+001 4.000000e+000
         vertex 0.000000e+000 0.000000e+000 0.000000e+000
         vertex 0.000000e+000 0.000000e+000 4.000000e+000
      endloop
   endfacet
   facet normal 0.000000e+000 1.000000e+000 0.000000e+000
      outer loop
         vertex 4.000000e+000 5.000000e+001 4.000000e+000
         vertex 5.000000e+001 5.000000e+001 4.000000e+000
         vertex 4.000000e+000 5.000000e+001 0.000000e+000
      endloop
   endfacet
   facet normal 0.000000e+000 1.000000e+000 0.000000e+000
      outer loop
         vertex 4.000000e+000 5.000000e+001 0.000000e+000
         vertex 5.000000e+001 5.000000e+001 4.000000e+000
         vertex 5.000000e+001 5.000000e+001 0.000000e+000
      endloop
   endfacet
   facet normal 7.071068e-001 -7.071068e-001 0.000000e+000
      outer loop
         vertex 2.000000e+001 0.000000e+000 0.000000e+000
         vertex 5.000000e+001 3.000000e+001 0.000000e+000
         vertex 2.000000e+001 0.000000e+000 4.000000e+000
      endloop
   endfacet
   facet normal 7.071068e-001 -7.071068e-001 0.000000e+000
      outer loop
         vertex 2.000000e+001 0.000000e+000 4.000000e+000
         vertex 5.000000e+001 3.000000e+001 0.000000e+000
         vertex 5.000000e+001 3.000000e+001 4.000000e+000
      endloop
   endfacet
   facet normal -7.071068e-001 7.071068e-001 0.000000e+000
      outer loop
         vertex 4.000000e+000 5.000000e+001 0.000000e+000
         vertex 0.000000e+000 4.600000e+001 0.000000e+000
         vertex 4.000000e+000 5.000000e+001 4.000000e+000
      endloop
   endfacet
   facet normal -7.071068e-001 7.071068e-001 0.000000e+000
      outer loop
         vertex 4.000000e+000 5.000000e+001 4.000000e+000
         vertex 0.000000e+000 4.600000e+001 0.000000e+000
         vertex 0.000000e+000 4.600000e+001 4.000000e+000
      endloop
   endfacet
endsolid